<svg width="16" height="16" viewBox="0 0 16 16" fill="none" xmlns="http://www.w3.org/2000/svg">
<path fill-rule="evenodd" clip-rule="evenodd" d="M0.417767 0.414203C-0.134504 0.966475 -0.134506 1.86188 0.417766 2.41415L5.41608 7.41247L0.414204 12.4143C-0.138068 12.9666 -0.138068 13.862 0.414204 14.4143C0.966475 14.9666 1.86188 14.9666 2.41415 14.4143L7.41603 9.41242L12.4175 14.4139C12.9697 14.9661 13.8652 14.9661 14.4174 14.4139C14.9697 13.8616 14.9697 12.9662 14.4174 12.4139L9.41599 7.41247L14.4139 2.4146C14.9661 1.86232 14.9661 0.966915 14.4139 0.414643C13.8616 -0.137628 12.9662 -0.13763 12.4139 0.414641L7.41603 5.41252L2.41772 0.414204C1.86545 -0.138068 0.970038 -0.138068 0.417767 0.414203Z" fill="#41444b"/>
</svg>
